<svg width="42" height="42" viewBox="0 0 42 42" fill="none" xmlns="http://www.w3.org/2000/svg">
<circle cx="40.5" cy="17.5" r="1.5" fill="#1DA765"/>
<circle cx="1.5" cy="24.5" r="1.5" fill="#2DEA8F"/>
<path d="M41 21C41 32.0457 32.0457 41 21 41C16.7507 41 12.811 39.6748 9.57143 37.4152M1 21C1 13.0217 5.67158 6.13456 12.4286 2.92466C15.0264 1.69055 17.9326 1 21 1C25.4598 1 29.5786 2.45972 32.9048 4.92744" stroke="url(#paint0_linear)" stroke-width="2" stroke-linecap="round"/>
<mask id="mask0" mask-type="alpha" maskUnits="userSpaceOnUse" x="2" y="2" width="38" height="38">
<circle cx="21" cy="21" r="19" fill="#C4C4C4"/>
</mask>
<g mask="url(#mask0)">
<path d="M13.377 39.5076C13.5194 38.108 15.262 35.5112 15.1866 34.1116C15.1782 33.8756 15.1866 33.6395 15.2201 33.4034C15.3626 32.417 15.3207 31.4305 15.2453 30.4525C15.2118 30.0478 15.2453 29.6516 15.3123 29.2469C15.4547 28.3785 15.5385 27.5185 15.438 26.6332C15.3458 25.7985 15.4463 24.9639 15.6139 24.146C15.7563 23.4547 15.7396 22.7633 15.6307 22.072C15.6055 21.9202 15.5804 21.76 15.6055 21.6167C15.6977 21.1024 15.748 20.5797 15.7647 19.9979C16.259 20.4363 16.7868 20.4616 17.3482 20.3352C17.809 20.234 18.0854 19.9305 18.2698 19.5174C18.3284 19.3825 18.3535 19.2138 18.5798 19.2644C18.6887 19.2897 18.8143 19.2729 18.8311 19.1211C18.8479 18.9778 18.7389 18.9356 18.6216 18.9103C17.9263 18.7501 17.2225 18.5815 16.5271 18.4297C16.3009 18.3792 16.0663 18.3201 15.8401 18.2948C15.639 18.2696 15.5971 18.1768 15.6139 17.9913C15.7144 17.1313 15.8736 16.2882 16.2171 15.4873C16.5523 14.7116 16.9795 13.9781 17.5911 13.3795C17.6665 13.3036 17.7587 13.2193 17.7084 13.0928C17.6582 12.9664 17.5576 12.9326 17.4403 12.9748C17.3147 13.017 17.2644 12.9495 17.2057 12.8652C17.0884 12.6797 16.9628 12.4942 16.8539 12.3003C16.4852 11.6933 16.0412 11.1453 15.5971 10.5888C15.505 10.4708 15.3877 10.3696 15.262 10.2768C14.885 10.007 14.5499 10.1588 14.508 10.631C14.4745 10.9345 14.4996 11.2464 14.6085 11.5331C15.0023 12.5364 15.3039 13.5818 15.8736 14.5093C16.0161 14.7453 15.815 14.8549 15.7396 15.0236C15.5971 14.9224 15.5217 14.7791 15.4547 14.6526C14.6756 13.2699 14.0221 11.8366 13.7456 10.2516C13.6702 9.83843 13.6702 9.41687 13.6869 9.00374C13.7121 8.54846 13.9131 8.43043 14.3488 8.54003C14.6672 8.62434 14.9101 8.82669 15.1447 9.0459C15.9406 9.78784 16.6193 10.6225 17.3398 11.4319C17.5325 11.6511 17.7252 11.8703 17.9095 12.0895C18.0268 12.2244 18.1357 12.3509 18.1525 12.5532C18.1692 12.7809 18.3284 12.8483 18.5379 12.764C18.5881 12.7472 18.6384 12.7219 18.6887 12.6881C19.0405 12.4436 19.4343 12.3593 19.8532 12.2919C21.001 12.0811 22.1321 12.1654 23.2631 12.4015C23.4391 12.4436 23.5899 12.5364 23.749 12.6291C24.0925 12.8399 24.2182 12.7893 24.3188 12.4015C24.3439 12.2919 24.4109 12.1991 24.4863 12.1148C25.4163 11.0694 26.2792 9.96489 27.3014 9.00374C27.5276 8.79297 27.7538 8.59062 28.0554 8.49788C28.5497 8.33769 28.7591 8.48945 28.7927 9.00374C28.8513 9.98175 28.6167 10.9092 28.3067 11.8197C27.9967 12.7303 27.5695 13.5903 27.117 14.4334C27.0165 14.6189 26.8908 14.7791 26.7652 14.9898C26.3546 14.3744 26.3546 14.3828 26.6646 13.7926C27.05 13.0675 27.4438 12.3593 27.7119 11.5752C27.8208 11.2464 27.913 10.9092 27.9046 10.5551C27.8962 10.3359 27.8543 10.1419 27.6365 10.0323C27.427 9.93117 27.2595 10.0239 27.1087 10.1504C26.9243 10.3106 26.7316 10.4792 26.5641 10.6647C25.986 11.297 25.3493 11.8872 24.9806 12.6797C24.9136 12.8315 24.6539 12.8989 24.7544 13.1266C24.8214 13.2783 24.9806 13.3711 25.0812 13.4975C25.676 14.2226 26.1536 15.0151 26.4468 15.9088C26.6311 16.4737 26.7568 17.0639 26.8322 17.6541C26.8657 17.9576 26.8657 17.9576 26.5557 18.0419C25.7933 18.2443 25.0393 18.4466 24.2769 18.649C24.2098 18.6658 24.1428 18.6742 24.0758 18.708C23.9166 18.7839 23.8998 18.9272 24.0507 19.0199C24.1512 19.0789 24.2098 19.1127 24.2433 19.2476C24.369 19.7872 24.7125 20.1328 25.2571 20.2087C25.8017 20.293 26.3127 20.2003 26.6311 19.6775C26.6479 19.6438 26.6562 19.627 26.7149 19.6607C26.6981 20.2846 26.7484 20.9169 26.8657 21.5408C26.8908 21.6589 26.8741 21.7938 26.8573 21.9118C26.6981 22.7043 26.7316 23.4884 26.8908 24.2725C27.0584 25.1409 27.1087 26.0093 27.0081 26.8862C26.9327 27.5269 26.9914 28.1677 27.1087 28.7916C27.2427 29.4998 27.2762 30.1996 27.2008 30.9078C27.1254 31.6329 27.1506 32.3495 27.226 33.0746C27.2762 33.5299 29.2451 35.4269 29.2199 35.8906C29.597 36.5482 30.0829 37.8045 30.5521 38.4115L29.3456 39.2293L22.2912 40.9999L15.6893 40.2158L13.377 39.5076Z" fill="white"/>
<path d="M58.6944 23.539C58.3006 23.2355 57.8482 23.0163 57.4041 22.7886C55.9966 22.072 54.5556 21.4481 53.1145 20.8242C51.7908 20.2509 50.6179 19.4668 49.6376 18.396C49.4868 18.2358 49.3193 18.084 49.1517 17.9407C48.9423 17.7552 48.7077 17.7384 48.4563 17.8648C48.1044 18.0419 47.7526 18.2274 47.4174 18.4382C46.9399 18.7332 46.1356 19.1717 45.6245 19.4077C42.9687 20.6555 40.2207 21.6673 37.4726 22.679C35.0346 23.5811 32.672 24.6519 30.3848 25.8828C29.5386 26.3381 28.7678 26.903 28.0473 27.5269C27.93 27.6281 27.8127 27.7461 27.6954 27.8389C27.687 27.8304 27.6786 27.8304 27.6703 27.822C27.6367 27.9232 27.5613 28.0159 27.4608 28.0581C27.4189 28.2267 27.2932 28.37 27.067 28.37C27.0503 28.37 27.0335 28.37 27.0168 28.37C27 29.3649 27.0335 30.3598 27.1424 31.3547C27.1843 31.7172 27.0922 31.9617 26.8408 32.2315C25.6009 33.5636 24.2017 34.6849 22.7691 35.781C22.7272 35.8147 22.6685 35.84 22.635 35.8822C22.501 36.0845 22.3502 36.0677 22.1491 35.9665C21.7805 35.781 21.4118 35.8822 21.0851 36.0761C20.9008 36.1857 20.7667 36.1773 20.5991 36.0929C19.7613 35.663 18.9319 35.233 18.1611 34.6765C17.1222 33.9346 16.0833 33.2011 15.1701 32.3074C15.0612 32.2062 14.9858 32.0966 14.9439 31.987C14.9272 31.9786 14.902 31.9701 14.8853 31.9617C14.8769 31.9617 14.8769 31.9617 14.8685 31.9533C14.6842 31.8774 14.9858 31.616 14.7847 31.5823C14.7428 31.5992 14.7093 31.6076 14.6674 31.6244C14.6172 31.675 14.2402 31.7341 13.9804 31.9617C13.9637 31.9786 13.9385 31.9954 13.9134 32.0123C13.1426 32.6278 12.9499 33.513 13.4024 34.3899C13.4861 34.5501 13.461 34.6597 13.394 34.803C13.0421 35.5281 13.0756 36.2278 13.5867 36.8686C13.7207 37.0457 13.8464 37.2311 14.0307 37.366L14.4496 37.6611C14.6926 37.796 15.0445 37.9309 15.2288 37.9815C16.0079 38.1923 16.7955 38.3272 17.5998 38.3609C17.9684 38.3778 18.3454 38.3188 18.7141 38.285C19.4262 38.2176 20.1467 38.1586 20.8505 38.0574C21.1186 38.0152 21.3699 38.0911 21.6213 38.0996C21.8475 38.108 22.0821 38.1333 22.2664 38.0152C22.6266 37.796 23.0288 37.7876 23.4142 37.7539C24.2687 37.678 25.1066 37.4841 25.9192 37.2227C26.7487 36.9614 27.5781 36.7084 28.374 36.3375C29.1699 35.9665 29.8653 35.4943 30.2675 34.6765C30.3094 34.6006 30.3512 34.5501 30.4183 34.5079C31.0299 34.1369 32.0269 33.9514 32.5714 33.7238C33.4176 33.2517 34.2554 32.7795 35.11 32.3242C36.3165 31.6835 37.5313 31.0511 38.8383 30.6211C41.0501 29.8792 43.3373 29.5082 45.6413 29.2216C46.4875 29.112 47.342 29.0445 48.1799 28.8337C49.6293 28.4628 51.0284 27.9569 52.4443 27.5016C52.9135 27.3499 53.391 27.1981 53.8434 26.9958C55.2593 26.3719 56.6166 25.6215 57.9738 24.888C58.2252 24.7531 58.4682 24.5845 58.7027 24.4074C59.1049 24.087 59.0965 23.8509 58.6944 23.539Z" fill="#231F20"/>
<path d="M29.2613 8.88582C29.2278 8.24506 28.7921 7.89938 28.1638 8.02585C27.8789 8.08487 27.6108 8.18604 27.3679 8.36309C26.773 8.80151 26.2703 9.3411 25.7928 9.89756C25.2315 10.5468 24.6617 11.196 24.1172 11.862C23.9496 12.0644 23.7988 12.0728 23.5893 11.98C23.2626 11.8283 22.9191 11.7103 22.5588 11.685C21.3021 11.5922 20.0454 11.5501 18.839 12.0222C18.5876 12.1234 18.4452 12.0728 18.2776 11.8704C17.7414 11.2212 17.1885 10.5805 16.6271 9.93971C16.1328 9.37483 15.6302 8.82681 15.0186 8.38839C14.7253 8.17761 14.4069 8.07643 14.0551 8.05957C13.611 8.04271 13.3178 8.26192 13.2089 8.70034C13.1754 8.83524 13.167 8.97857 13.167 9.11346C13.167 9.8807 13.3094 10.6311 13.4602 11.3814C13.6781 12.4691 14.1724 13.4555 14.5996 14.4588C14.7672 14.8551 14.9934 15.226 15.2867 15.538C15.3956 15.656 15.4207 15.7572 15.3788 15.909C15.3118 16.145 15.2531 16.3895 15.1945 16.634C14.9599 17.5193 14.8761 18.4214 15.0102 19.3236C15.0856 19.8041 15.0688 20.2594 15.0186 20.7316C14.9599 21.2459 14.9431 21.7517 15.0604 22.266C15.2029 22.8731 15.1694 23.4801 15.0186 24.0871C14.8594 24.7279 14.7756 25.3687 14.8091 26.0263C14.851 26.7261 14.7672 27.4174 14.7421 28.1088C14.7337 28.5135 14.7421 28.9182 14.6499 29.3144C14.5326 29.8203 14.541 30.3346 14.6164 30.8489C14.7588 31.8522 14.6667 31.3632 14.7086 31.9703C14.8929 31.9703 15.1107 32.552 15.3034 32.5436C15.295 32.0714 15.2448 30.9332 15.2029 30.4611C15.1694 30.0564 15.2029 29.6601 15.2699 29.2554C15.4123 28.387 15.4961 27.5271 15.3956 26.6418C15.3034 25.8071 15.4039 24.9724 15.5715 24.1546C15.7139 23.4632 15.6972 22.7719 15.5883 22.0805C15.5631 21.9288 15.538 21.7686 15.5631 21.6253C15.6553 21.111 15.7056 20.5882 15.7223 20.0065C16.2166 20.4449 16.7444 20.4702 17.3058 20.3437C17.7666 20.2426 18.043 19.939 18.2274 19.5259C18.286 19.391 18.3111 19.2224 18.5374 19.273C18.6463 19.2983 18.7719 19.2814 18.7887 19.1296C18.8055 18.9863 18.6965 18.9442 18.5792 18.9189C17.8839 18.7587 17.1801 18.5901 16.4847 18.4383C16.2585 18.3877 16.0239 18.3287 15.7977 18.3034C15.5966 18.2781 15.5547 18.1854 15.5715 17.9999C15.672 17.1399 15.8312 16.2968 16.1747 15.4958C16.5099 14.7202 16.9371 13.9867 17.5487 13.388C17.6241 13.3122 17.7163 13.2279 17.666 13.1014C17.6158 12.9749 17.5152 12.9412 17.3979 12.9834C17.2723 13.0255 17.222 12.9581 17.1633 12.8737C17.046 12.6883 16.9204 12.5028 16.8115 12.3089C16.4428 11.7018 15.9988 11.1538 15.5548 10.5973C15.4626 10.4793 15.3453 10.3781 15.2196 10.2854C14.8426 10.0156 14.5075 10.1674 14.4656 10.6395C14.4321 10.943 14.4572 11.255 14.5661 11.5416C14.9599 12.5449 15.2615 13.5904 15.8312 14.5178C15.9737 14.7539 15.7726 14.8635 15.6972 15.0321C15.5547 14.9309 15.4793 14.7876 15.4123 14.6611C14.6332 13.2784 13.9797 11.8451 13.7032 10.2601C13.6278 9.84697 13.6278 9.42542 13.6445 9.01229C13.6697 8.55701 13.8708 8.43897 14.3064 8.54858C14.6248 8.63289 14.8677 8.83524 15.1023 9.05445C15.8983 9.79639 16.5769 10.6311 17.2974 11.4405C17.4901 11.6597 17.6828 11.8789 17.8671 12.0981C17.9844 12.233 18.0933 12.3594 18.1101 12.5618C18.1268 12.7894 18.286 12.8569 18.4955 12.7726C18.5457 12.7557 18.596 12.7304 18.6463 12.6967C18.9981 12.4522 19.3919 12.3679 19.8108 12.3004C20.9586 12.0897 22.0897 12.174 23.2207 12.41C23.3967 12.4522 23.5475 12.5449 23.7066 12.6377C24.0501 12.8485 24.1758 12.7979 24.2764 12.41C24.3015 12.3004 24.3685 12.2077 24.4439 12.1234C25.3739 11.0779 26.2368 9.97344 27.259 9.01229C27.4852 8.80151 27.7114 8.59917 28.013 8.50642C28.5073 8.34623 28.7167 8.49799 28.7503 9.01229C28.8089 9.9903 28.5743 10.9177 28.2643 11.8283C27.9543 12.7388 27.5271 13.5988 27.0746 14.4419C26.9741 14.6274 26.8484 14.7876 26.7228 14.9984C26.3122 14.3829 26.3122 14.3914 26.6222 13.8012C27.0076 13.0761 27.4014 12.3679 27.6695 11.5838C27.7784 11.255 27.8706 10.9177 27.8622 10.5636C27.8538 10.3444 27.8119 10.1505 27.5941 10.0409C27.3846 9.93972 27.2171 10.0325 27.0663 10.1589C26.8819 10.3191 26.6892 10.4877 26.5217 10.6732C25.9436 11.3056 25.3069 11.8957 24.9382 12.6883C24.8712 12.84 24.6115 12.9075 24.712 13.1351C24.779 13.2869 24.9382 13.3796 25.0388 13.5061C25.6336 14.2312 26.1112 15.0237 26.4044 15.9174C26.5887 16.4823 26.7144 17.0725 26.7898 17.6626C26.8233 17.9662 26.8233 17.9662 26.5133 18.0505C25.7509 18.2528 24.9969 18.4552 24.2345 18.6575C24.1674 18.6744 24.1004 18.6828 24.0334 18.7165C23.8742 18.7924 23.8574 18.9357 24.0083 19.0285C24.1088 19.0875 24.1674 19.1212 24.2009 19.2561C24.3266 19.7957 24.6701 20.1414 25.2147 20.2173C25.7593 20.3016 26.2703 20.2088 26.5887 19.6861C26.6055 19.6524 26.6138 19.6355 26.6725 19.6692C26.6557 20.2931 26.706 20.9255 26.8233 21.5494C26.8484 21.6674 26.8317 21.8023 26.8149 21.9204C26.6557 22.7129 26.6892 23.497 26.8484 24.2811C27.016 25.1495 27.0663 26.0179 26.9657 26.8947C26.8903 27.5355 26.949 28.1762 27.0663 28.8002C27.2003 29.5084 27.2338 30.2082 27.1584 30.9164C27.1333 31.1524 27.1165 31.3885 27.1165 31.6246C27.3092 31.633 27.5019 31.6414 27.6946 31.6499C27.703 31.5318 27.7114 31.4054 27.7281 31.2873C27.8035 30.6128 27.8957 29.9468 27.77 29.2554C27.5857 28.2437 27.6108 27.2067 27.5941 26.1781C27.5857 25.4361 27.5689 24.7111 27.3846 23.986C27.2422 23.4295 27.2003 22.8562 27.326 22.2913C27.4684 21.6674 27.4517 21.0519 27.3679 20.428C27.326 20.1414 27.2673 19.8463 27.3427 19.5596C27.4852 18.9947 27.4684 18.4299 27.4433 17.8565C27.4098 17.1821 27.2254 16.5413 27.0579 15.9005C27.0076 15.7066 27.016 15.5717 27.1668 15.4199C27.3595 15.226 27.5187 14.99 27.636 14.737C28.3397 13.2953 28.9681 11.8367 29.1524 10.2264C29.2194 9.80482 29.2865 9.34954 29.2613 8.88582Z" fill="#231F20"/>
<path d="M58.1917 24.0618C57.5969 24.3822 57.0691 24.6773 56.5329 24.9555C55.628 25.4277 54.7064 25.8745 53.7765 26.2961C53.2989 26.5153 52.8046 26.6839 52.3019 26.8357C51.1122 27.2066 49.9309 27.586 48.7496 27.9486C47.6521 28.2858 46.5043 28.4039 45.3732 28.5472C43.9322 28.7242 42.4995 28.9266 41.092 29.2723C39.8604 29.5758 38.6288 29.8877 37.4475 30.3683C36.5343 30.7393 35.6714 31.203 34.8084 31.6583C33.8282 32.1726 32.8731 32.729 31.9264 33.3023C31.5577 33.53 31.1388 33.6312 30.7367 33.7745C30.6026 33.8166 30.5021 33.7998 30.4518 33.6396C30.3094 33.2096 29.9994 32.9145 29.5972 32.7206C29.4464 32.6447 29.4213 32.5435 29.4297 32.3833C29.4464 32.1473 29.4381 31.9112 29.3543 31.6836C29.2537 31.3969 29.0694 31.2114 28.7846 31.1271C28.5165 31.0428 28.2484 30.9754 27.9719 31.0091C27.7876 31.0344 27.7206 30.9669 27.7122 30.7983C27.7038 30.6634 27.687 30.5201 27.6787 30.3852C27.6619 30.0226 27.7038 29.6517 27.6368 29.306C27.5614 28.8844 27.6954 28.6146 28.0054 28.3364C29.0527 27.3837 30.2424 26.6755 31.4991 26.0516C34.1884 24.711 36.9867 23.6403 39.8018 22.6201C42.2733 21.7264 44.6862 20.6978 47.0405 19.5343C47.585 19.2645 48.1045 18.9441 48.6239 18.6322C48.7831 18.5394 48.8836 18.5394 49.0009 18.6996C49.9644 19.9643 51.2714 20.7568 52.6873 21.3807C54.2456 22.0636 55.7788 22.7971 57.2953 23.5475C57.5801 23.6824 57.8566 23.8679 58.1917 24.0618Z" fill="#31C77F"/>
<path d="M13.9131 35.0224C14.0472 35.0814 14.1393 35.1151 14.2231 35.1489C14.3739 35.2079 14.5331 35.2163 14.6336 35.0645C14.7425 34.9044 14.642 34.7779 14.5247 34.6683C14.3907 34.5502 14.2566 34.4322 14.1226 34.3057C13.578 33.7999 13.8126 32.8809 14.3236 32.5605C14.4493 32.4846 14.5415 32.4509 14.642 32.5774C14.6671 32.6111 14.7007 32.6364 14.7258 32.6701C15.7814 33.8673 17.1052 34.7357 18.4289 35.5873C19.0321 35.9751 19.6521 36.3461 20.3224 36.6159C20.4899 36.6833 20.5653 36.7676 20.5318 36.9531C20.4983 37.1049 20.5067 37.2566 20.5653 37.4084C20.624 37.5686 20.5402 37.6108 20.4061 37.6192C20.1883 37.6445 19.9705 37.6782 19.7443 37.6782C18.9065 37.6951 18.0687 37.8721 17.2308 37.7962C16.3763 37.7119 15.5468 37.5264 14.7677 37.1386C14.4912 37.0037 14.2482 36.8267 14.0639 36.5737C13.7037 36.1016 13.6953 35.5957 13.9131 35.0224Z" fill="#31C77F"/>
<path d="M23.5481 37.147C23.4225 37.1301 23.2549 37.265 23.1376 37.1554C23.0538 37.0711 23.0454 36.9024 22.9952 36.776C22.9784 36.7254 22.9533 36.6664 22.9198 36.6242C22.8025 36.4809 22.8863 36.405 23.0036 36.3291C23.7324 35.8739 24.3776 35.309 25.0729 34.8031C25.9191 34.1708 26.6648 33.4288 27.3686 32.6447C27.5948 32.4002 27.7623 32.1051 27.7456 31.751C27.7372 31.6077 27.8042 31.5487 27.9466 31.5655C28.0807 31.5824 28.2231 31.5993 28.3572 31.633C28.7761 31.7342 28.952 32.0883 28.7677 32.4845C28.6923 32.6447 28.5918 32.7965 28.508 32.9567C28.4493 33.0747 28.4242 33.1928 28.5415 33.2939C28.6504 33.3867 28.7677 33.3698 28.885 33.3108C28.8934 33.3024 28.9101 33.3024 28.9185 33.2939C29.019 33.2433 29.0777 33.0831 29.1782 33.1169C29.329 33.1675 29.4715 33.2686 29.5971 33.3698C29.8987 33.6143 30.0076 33.901 29.8987 34.2045C29.7731 34.5417 29.572 34.8453 29.3039 35.0982C28.7761 35.5956 28.1477 35.9076 27.4858 36.1436C26.3799 36.5315 25.274 36.9109 24.1095 37.1048C23.9335 37.1301 23.7492 37.147 23.5481 37.147Z" fill="#31C77F"/>
<path d="M16.1754 14.2816C15.7648 13.8769 15.5302 13.4048 15.3543 12.9158C15.1365 12.3172 14.927 11.7186 14.7846 11.0947C14.7511 10.9598 14.7427 10.8249 14.7343 10.6815C14.7343 10.5888 14.7176 10.4792 14.8265 10.4286C14.9354 10.3865 15.0192 10.4539 15.0862 10.5214C15.4381 10.8333 15.7397 11.1958 15.9827 11.6005C16.2759 12.0811 16.5691 12.5617 16.8791 13.0423C16.9964 13.2277 16.9964 13.3626 16.8205 13.4891C16.5524 13.683 16.4099 13.9865 16.1754 14.2816Z" fill="#FEFEFE"/>
<path d="M26.137 14.0626C25.9443 13.7169 25.6511 13.4724 25.3662 13.2111C25.2238 13.0762 25.2322 12.9834 25.3243 12.8232C25.7265 12.1572 26.2292 11.567 26.7402 10.9768C26.891 10.7998 27.0251 10.5974 27.2178 10.4625C27.4272 10.3192 27.5529 10.3782 27.5864 10.6311C27.5948 10.6986 27.5948 10.7745 27.578 10.8419C27.4524 11.3646 27.3434 11.9042 27.0753 12.3764C26.8072 12.8317 26.5726 13.2954 26.3381 13.7675C26.2878 13.8687 26.2627 13.9867 26.137 14.0626Z" fill="#FEFEFE"/>
<path d="M21.7466 37.5854C21.7047 37.5769 21.6293 37.5769 21.5623 37.5685C21.2691 37.5263 21.0931 37.383 21.0596 37.1554C21.0261 36.9277 21.2104 36.6242 21.4534 36.5315C21.9058 36.346 22.3247 36.4809 22.5174 36.8687C22.6431 37.1132 22.6096 37.2397 22.4001 37.4083C22.2409 37.5263 22.0147 37.5938 21.7466 37.5854Z" fill="#31C77F"/>
<path d="M16.6026 19.3574C16.4099 19.3658 16.2759 19.2562 16.2759 19.0791C16.2675 18.8936 16.368 18.7756 16.5272 18.7756C16.7199 18.7672 16.8456 18.8768 16.854 19.0623C16.854 19.2477 16.7786 19.3489 16.6026 19.3574Z" fill="#E7EBEB"/>
<path d="M25.4579 19.0792C25.416 19.2141 25.3909 19.3574 25.2317 19.3911C25.0809 19.4248 24.9385 19.2815 24.9385 19.1213C24.9469 18.9527 25.0474 18.8684 25.1982 18.86C25.3322 18.8515 25.4328 18.9358 25.4579 19.0792Z" fill="#EFF2F2"/>
<path d="M21.5036 19.6776C21.7131 19.4246 21.9812 19.315 22.2996 19.3234C22.8022 19.3319 23.1709 19.6607 23.2128 20.1666C23.2295 20.4111 23.2463 20.6724 23.1541 20.9085C23.0703 21.1193 23.0955 21.2373 23.2965 21.3891C23.7071 21.7179 23.9165 22.1563 23.883 22.7043C23.8663 22.9235 23.816 23.1343 23.6652 23.2777C23.4641 23.4631 23.3552 23.7076 23.2547 23.9353C23.0201 24.4496 22.5928 24.6772 22.0901 24.7615C21.5288 24.8458 20.9926 24.7025 20.515 24.3906C20.2637 24.2304 20.0877 23.9943 20.004 23.7076C19.9621 23.5643 19.9034 23.4716 19.7777 23.3873C19.3002 23.0584 19.1745 22.5104 19.4594 22.0046C19.5515 21.8359 19.6605 21.6589 19.8029 21.5408C20.0207 21.3722 20.0375 21.2036 19.9621 20.9675C19.8615 20.6471 19.9286 20.3352 20.0375 20.0317C20.2553 19.4162 20.758 19.2391 21.3193 19.568C21.3696 19.5932 21.4282 19.6354 21.5036 19.6776Z" fill="#030202"/>
<path d="M22.777 23.2693C22.4586 23.244 22.157 23.0501 21.9308 22.7213C21.6124 22.2492 21.6124 22.2492 21.3192 22.7382C21.093 23.1091 20.7495 23.2946 20.3138 23.2693C19.7357 23.2272 19.4592 22.6707 19.7776 22.1733C19.8949 21.9878 20.0625 21.836 20.2384 21.7011C20.5149 21.4904 20.5316 21.4482 20.4144 21.1025C20.3389 20.8749 20.2719 20.6557 20.2887 20.4112C20.3306 19.88 20.7411 19.6608 21.1935 19.9137C21.2689 19.9559 21.3276 20.0149 21.3946 20.0571C21.5621 20.1583 21.7046 20.1667 21.8051 19.9643C21.9308 19.7198 22.1486 19.7114 22.3748 19.7367C22.6262 19.762 22.7686 19.9138 22.8608 20.1414C22.911 20.2679 22.9026 20.3859 22.8524 20.5039C22.7854 20.6726 22.7099 20.8327 22.6429 21.0014C22.4837 21.347 22.5005 21.4229 22.8524 21.5747C23.1456 21.7011 23.3718 21.8866 23.4975 22.1902C23.7237 22.7129 23.4053 23.2525 22.777 23.2693Z" fill="white"/>
<path d="M20.4062 23.6403C21.0095 23.5729 21.043 23.556 21.6713 22.949C22.0065 23.3874 22.4254 23.6572 22.9951 23.615C22.8275 24.1209 22.4589 24.3738 21.8976 24.3907C21.2776 24.3991 20.5571 24.2389 20.4062 23.6403Z" fill="#FDFDFD"/>
<path d="M20.9089 20.4197C20.934 20.4365 21.0011 20.445 21.0262 20.4787C21.1351 20.622 21.2273 20.7822 21.244 20.9677C21.2524 21.052 21.2105 21.1279 21.1183 21.1616C21.0429 21.1869 20.9843 21.1532 20.934 21.1026C20.8 20.9593 20.6994 20.7907 20.7246 20.5799C20.7329 20.4956 20.7832 20.4365 20.9089 20.4197Z" fill="#0E0D0D"/>
<path d="M21.906 20.7822C21.9311 20.7148 21.9646 20.5883 22.0233 20.4787C22.0651 20.386 22.1406 20.3185 22.2578 20.3691C22.3416 20.4113 22.3751 20.4872 22.3584 20.5715C22.3332 20.6895 22.2914 20.8075 22.2495 20.9256C22.2076 21.0352 22.1322 21.1195 21.9981 21.0689C21.8808 21.0352 21.8808 20.9256 21.906 20.7822Z" fill="#191717"/>
<path d="M13.7708 36.7507L13 38.8754L13.5194 39.1367C13.5194 39.1367 14.24 37.3746 14.3237 37.206C14.3991 37.029 13.7708 36.7507 13.7708 36.7507Z" fill="#231F20"/>
<path d="M29.1699 35.3679L28.8516 35.7136C28.8516 35.7136 30.1753 38.8331 30.5691 38.8416C30.9628 38.8416 30.7115 38.2092 30.7115 38.2092C30.7115 38.2092 29.5553 35.7726 29.3542 35.3427C29.2034 34.997 29.1699 35.3679 29.1699 35.3679Z" fill="#231F20"/>
</g>
<defs>
<linearGradient id="paint0_linear" x1="1" y1="1" x2="48.951" y2="16.671" gradientUnits="userSpaceOnUse">
<stop stop-color="#2DEA8F"/>
<stop offset="0.485366" stop-color="#31C77F"/>
<stop offset="1" stop-color="#1DA765"/>
</linearGradient>
</defs>
</svg>
