<svg width="42" height="42" viewBox="0 0 42 42" fill="none" xmlns="http://www.w3.org/2000/svg">
<circle cx="40.5" cy="17.5" r="1.5" fill="#1DA765"/>
<circle cx="1.5" cy="24.5" r="1.5" fill="#2DEA8F"/>
<path d="M41 21C41 32.0457 32.0457 41 21 41C16.7507 41 12.811 39.6748 9.57143 37.4152M1 21C1 13.0217 5.67158 6.13456 12.4286 2.92466C15.0264 1.69055 17.9326 1 21 1C25.4598 1 29.5786 2.45972 32.9048 4.92744" stroke="url(#paint0_linear)" stroke-width="2" stroke-linecap="round"/>
<path d="M28.9556 18.2462C29.3092 15.8294 27.509 14.5303 25.0474 13.6637L25.8459 10.39L23.8962 9.89344L23.1188 13.081C22.6062 12.9503 22.0798 12.8272 21.5566 12.7051L22.3397 9.49656L20.3911 9L19.5921 12.2727C19.1679 12.1739 18.7513 12.0764 18.3471 11.9736L18.3494 11.9633L15.6606 11.277L15.1419 13.4055C15.1419 13.4055 16.5885 13.7444 16.558 13.7653C17.3476 13.9667 17.4904 14.5009 17.4666 14.9243L16.557 18.6538C16.6114 18.6679 16.6819 18.6884 16.7597 18.7203C16.6946 18.7038 16.6254 18.6858 16.5536 18.6682L15.2786 23.8928C15.1821 24.1379 14.9372 24.5059 14.3851 24.3661C14.4047 24.3951 12.968 24.0047 12.968 24.0047L12 26.2858L14.5373 26.9323C15.0093 27.0533 15.4719 27.1799 15.9274 27.2989L15.1206 30.6102L17.0681 31.1067L17.8671 27.8306C18.3991 27.9782 18.9155 28.1144 19.4209 28.2428L18.6246 31.5034L20.5745 32L21.3812 28.6949C24.706 29.3381 27.2059 29.0788 28.2582 26.0051C29.1061 23.5305 28.216 22.1031 26.4668 21.1723C27.7408 20.872 28.7004 20.0156 28.9563 18.2465L28.9556 18.2462ZM24.5008 24.6308C23.8983 27.1055 19.8217 25.7678 18.5001 25.4323L19.5707 21.0455C20.8923 21.3827 25.1305 22.05 24.5008 24.6308ZM25.1038 18.2104C24.5542 20.4613 21.1612 19.3177 20.0606 19.0373L21.0313 15.0587C22.1319 15.3391 25.6762 15.8625 25.1038 18.2104Z" fill="#31C77F"/>
<defs>
<linearGradient id="paint0_linear" x1="1" y1="1" x2="48.951" y2="16.671" gradientUnits="userSpaceOnUse">
<stop stop-color="#2DEA8F"/>
<stop offset="0.485366" stop-color="#31C77F"/>
<stop offset="1" stop-color="#1DA765"/>
</linearGradient>
</defs>
</svg>
