<svg width="42" height="42" viewBox="0 0 42 42" fill="none" xmlns="http://www.w3.org/2000/svg">
<circle cx="40.5" cy="17.5" r="1.5" fill="#1DA765"/>
<circle cx="1.5" cy="24.5" r="1.5" fill="#2DEA8F"/>
<path d="M41 21C41 32.0457 32.0457 41 21 41C16.7507 41 12.811 39.6748 9.57143 37.4152M1 21C1 13.0217 5.67158 6.13456 12.4286 2.92466C15.0264 1.69055 17.9326 1 21 1C25.4598 1 29.5786 2.45972 32.9048 4.92744" stroke="url(#paint0_linear)" stroke-width="2" stroke-linecap="round"/>
<path d="M16.339 19.085L21 14.424L25.6631 19.087L28.3751 16.375L21 9L13.6272 16.3728L16.3391 19.0848L16.339 19.085ZM9 21L11.7121 18.2875L14.424 20.9994L11.7119 23.7115L9 21ZM16.339 22.9153L21 27.576L25.663 22.9131L28.3765 25.6236L28.3751 25.6251L21 33L13.6272 25.6272L13.6233 25.6234L16.3393 22.915L16.339 22.9153ZM27.5759 21.0012L30.288 18.2891L32.9999 21.001L30.2879 23.7131L27.5759 21.0012Z" fill="#31C77F"/>
<path d="M23.751 20.9985H23.7522L21.0004 18.2466L18.9665 20.28L18.7328 20.5137L18.2509 20.9957L18.2471 20.9995L18.2509 21.0034L21.0004 23.7533L23.7524 21.0014L23.7537 20.9999L23.7512 20.9985" fill="#31C77F"/>
<defs>
<linearGradient id="paint0_linear" x1="1" y1="1" x2="48.951" y2="16.671" gradientUnits="userSpaceOnUse">
<stop stop-color="#2DEA8F"/>
<stop offset="0.485366" stop-color="#31C77F"/>
<stop offset="1" stop-color="#1DA765"/>
</linearGradient>
</defs>
</svg>
