<svg width="42" height="42" viewBox="0 0 42 42" fill="none" xmlns="http://www.w3.org/2000/svg">
<circle cx="40.5" cy="17.5" r="1.5" fill="#1DA765"/>
<circle cx="1.5" cy="24.5" r="1.5" fill="#2DEA8F"/>
<path d="M41 21C41 32.0457 32.0457 41 21 41C16.7507 41 12.811 39.6748 9.57143 37.4152M1 21C1 13.0217 5.67158 6.13456 12.4286 2.92466C15.0264 1.69055 17.9326 1 21 1C25.4598 1 29.5786 2.45972 32.9048 4.92744" stroke="url(#paint0_linear)" stroke-width="2" stroke-linecap="round"/>
<path d="M20.9991 9.05054L23.9598 12.0735L16.5046 19.5063L13.5439 16.5545L20.9991 9.05054Z" fill="#31C77F"/>
<path d="M25.4936 13.5317L28.4543 16.5547L16.5046 28.4686L13.5439 25.5168L25.4936 13.5317Z" fill="#31C77F"/>
<path d="M12.0105 18.0127L14.9712 21.0356L12.0105 23.9874L9.0498 21.0356L12.0105 18.0127Z" fill="#31C77F"/>
<path d="M29.9888 18.0127L32.9494 21.0356L20.9997 32.9496L18.0391 29.9978L29.9888 18.0127Z" fill="#31C77F"/>
<defs>
<linearGradient id="paint0_linear" x1="1" y1="1" x2="48.951" y2="16.671" gradientUnits="userSpaceOnUse">
<stop stop-color="#2DEA8F"/>
<stop offset="0.485366" stop-color="#31C77F"/>
<stop offset="1" stop-color="#1DA765"/>
</linearGradient>
</defs>
</svg>
