<svg width="81" height="75" viewBox="0 0 81 75" fill="none" xmlns="http://www.w3.org/2000/svg">
<g clip-path="url(#clip0)">
<path d="M22.2044 37.2295C22.0316 40.2381 24.3428 42.8139 27.3452 42.987C27.4532 42.987 27.5612 42.987 27.6692 42.987C30.6932 42.987 33.134 40.5411 33.1124 37.5108C33.1124 34.4805 30.6716 32.0346 27.6476 32.0563C24.7532 32.0563 22.3556 34.329 22.2044 37.2295Z" fill="#0033AD"/>
<path d="M1.85746 35.8225C0.885459 35.7576 0.0430586 36.5151 -0.00014138 37.4892C-0.0433414 38.4632 0.691059 39.3073 1.66306 39.3506C2.63506 39.4156 3.45586 38.658 3.52066 37.684C3.58546 36.7099 2.82946 35.8874 1.85746 35.8225Z" fill="#0033AD"/>
<path d="M21.8589 5.49791C22.7229 5.06501 23.0685 3.98276 22.6365 3.11696C22.2045 2.25116 21.1245 1.90484 20.2605 2.33774C19.3965 2.77064 19.0509 3.83124 19.4829 4.69704C19.9149 5.58449 20.9733 5.95246 21.8589 5.49791C21.8373 5.49791 21.8589 5.49791 21.8589 5.49791Z" fill="#0033AD"/>
<path d="M27.389 15.1732C28.7282 14.5023 29.2682 12.8572 28.5986 11.5152C27.929 10.1732 26.2874 9.63212 24.9482 10.3031C23.609 10.9741 23.069 12.6191 23.7386 13.9611C24.4082 15.3031 26.0498 15.8442 27.389 15.1732Z" fill="#0033AD"/>
<path d="M8.76937 21.8183C9.80617 22.4893 11.1886 22.2079 11.8798 21.1689C12.5494 20.13 12.2686 18.7447 11.2318 18.052C10.195 17.3811 8.81257 17.6624 8.12137 18.7014C7.43017 19.7404 7.73257 21.1473 8.76937 21.8183Z" fill="#0033AD"/>
<path d="M12.0747 34.8485C10.5627 34.7619 9.28825 35.9091 9.20185 37.4242C9.11545 38.9394 10.2603 40.2164 11.7723 40.303C13.2843 40.3896 14.5587 39.2424 14.6451 37.7273C14.7315 36.2337 13.5867 34.935 12.0747 34.8485Z" fill="#0033AD"/>
<path d="M9.07194 53.1819C7.97034 53.7446 7.51674 55.0866 8.07834 56.2122C8.63994 57.3161 9.97914 57.7706 11.1023 57.2078C12.2039 56.6451 12.6575 55.3031 12.0959 54.1775C11.5343 53.0736 10.1735 52.6191 9.07194 53.1819Z" fill="#0033AD"/>
<path d="M19.6565 29.1992C21.1469 30.1732 23.1341 29.762 24.0845 28.2685C25.0565 26.775 24.6461 24.7836 23.1557 23.8312C21.6653 22.8572 19.6781 23.2685 18.7277 24.762C17.7557 26.2338 18.1661 28.2252 19.6565 29.1992Z" fill="#0033AD"/>
<path d="M53.2437 14.9567C54.4965 15.7792 56.2029 15.4329 57.0237 14.1775C57.8445 12.9221 57.4989 11.2121 56.2461 10.3896C54.9933 9.56711 53.2869 9.91343 52.4661 11.1688C51.6237 12.4459 51.9693 14.1342 53.2437 14.9567Z" fill="#0033AD"/>
<path d="M58.8168 5.32462C59.6376 5.86575 60.7176 5.62765 61.2576 4.80514C61.7976 3.98263 61.56 2.90038 60.7392 2.35925C59.9184 1.81813 58.8384 2.05622 58.2984 2.85709C57.78 3.6796 58.0176 4.78349 58.8168 5.32462Z" fill="#0033AD"/>
<path d="M53.6541 32.013C50.6517 31.8399 48.0597 34.1559 47.9085 37.1645C47.7357 40.1732 50.0469 42.7706 53.0493 42.9221C53.1573 42.9221 53.2653 42.9221 53.3517 42.9221C56.3541 42.9221 58.7949 40.4762 58.7949 37.4459C58.8165 34.5671 56.5485 32.1645 53.6541 32.013Z" fill="#0033AD"/>
<path d="M29.1809 28.8095C30.1097 30.6494 31.9889 31.8182 34.0625 31.8182C37.0649 31.8182 39.5057 29.3723 39.5057 26.342C39.5057 25.4979 39.3113 24.6537 38.9225 23.8745C37.5617 21.1689 34.2785 20.0866 31.6001 21.4502C28.9001 22.8355 27.8201 26.1256 29.1809 28.8095Z" fill="#0033AD"/>
<path d="M71.9279 21.8182C73.0295 21.2554 73.4615 19.8918 72.8999 18.7879C72.3383 17.684 70.9775 17.2511 69.8759 17.8138C68.7743 18.3766 68.3423 19.7186 68.8823 20.8225C69.4655 21.9264 70.8047 22.3809 71.9279 21.8182Z" fill="#0033AD"/>
<path d="M58.1034 23.5499C56.5266 24.3507 55.8786 26.2771 56.6778 27.8572C57.477 29.4373 59.3994 30.0867 60.9762 29.2858C62.553 28.4849 63.201 26.5585 62.4018 24.9784C61.6026 23.3983 59.6802 22.7706 58.1034 23.5499Z" fill="#0033AD"/>
<path d="M40.284 4.50219C41.5152 4.56713 42.5736 3.61475 42.66 2.38098C42.7464 1.14721 41.7744 0.0866069 40.5432 2.67781e-05C39.312 -0.0649083 38.2536 0.865828 38.1672 2.09959C38.1024 3.35501 39.0528 4.41561 40.284 4.50219Z" fill="#0033AD"/>
<path d="M40.2623 18.6363C42.0335 18.7446 43.5455 17.3809 43.6319 15.606C43.7399 13.8311 42.3791 12.316 40.6079 12.2294C38.8367 12.1212 37.3247 13.4848 37.2383 15.2597C37.1519 17.0346 38.4911 18.5498 40.2623 18.6363Z" fill="#0033AD"/>
<path d="M22.8951 51.4502C24.4719 50.6493 25.1199 48.7229 24.3207 47.1428C23.5215 45.5628 21.5991 44.9134 20.0223 45.7143C18.4455 46.5151 17.7975 48.4415 18.5967 50.0216C19.3959 51.6017 21.3183 52.2511 22.8951 51.4502Z" fill="#0033AD"/>
<path d="M42.3356 23.3334C40.694 25.8658 41.3852 29.2425 43.9124 30.8875C46.4396 32.5325 49.8092 31.8399 51.4508 29.3074C53.0925 26.7749 52.4012 23.3983 49.874 21.7533C48.9884 21.1689 47.9516 20.8658 46.8932 20.8658C45.0572 20.8658 43.3508 21.7966 42.3356 23.3334Z" fill="#0033AD"/>
<path d="M51.8181 46.1905C50.4573 43.4849 47.1741 42.4026 44.4957 43.7663C41.7956 45.1299 40.7157 48.42 42.0765 51.1039C43.4373 53.8096 46.7205 54.8918 49.3989 53.5282C52.0773 52.1862 53.1789 48.9394 51.8397 46.2338C51.8397 46.2122 51.8397 46.2122 51.8181 46.1905Z" fill="#0033AD"/>
<path d="M61.3442 45.8008C59.8538 44.8268 57.8666 45.2381 56.9162 46.7316C55.9442 48.2251 56.3546 50.2164 57.845 51.1688C59.3354 52.1428 61.3226 51.7316 62.273 50.2381C63.245 48.7662 62.8346 46.7749 61.3442 45.8008Z" fill="#0033AD"/>
<path d="M71.7984 37.5974C71.8848 36.0822 70.74 34.8052 69.228 34.7186C67.716 34.632 66.4416 35.7792 66.3552 37.2943C66.2688 38.8095 67.4136 40.0866 68.9256 40.1731C70.416 40.2597 71.712 39.0909 71.7984 37.5974Z" fill="#0033AD"/>
<path d="M79.337 35.6494C78.3649 35.5845 77.5226 36.342 77.4794 37.3161C77.4362 38.2901 78.1705 39.1342 79.1426 39.1775C80.1146 39.2425 80.9354 38.4849 81.0002 37.5109C81.0434 36.5368 80.309 35.7143 79.337 35.6494Z" fill="#0033AD"/>
<path d="M72.2301 53.1818C71.1933 52.5108 69.8109 52.7922 69.1197 53.8312C68.4501 54.8701 68.7309 56.2554 69.7677 56.9481C70.8045 57.6191 72.1869 57.3377 72.8781 56.2987C73.5693 55.2597 73.2669 53.8528 72.2301 53.1818Z" fill="#0033AD"/>
<path d="M22.1615 69.6753C21.3407 69.1342 20.2607 69.3723 19.7207 70.1731C19.1807 70.9956 19.4183 72.0779 20.2175 72.619C21.0383 73.1601 22.1183 72.9221 22.6583 72.1212C23.2199 71.3203 22.9823 70.2164 22.1615 69.6753Z" fill="#0033AD"/>
<path d="M59.1413 69.5022C58.2773 69.9351 57.9317 71.0174 58.3637 71.8832C58.7957 72.749 59.8757 73.0953 60.7397 72.6624C61.6037 72.2295 61.9493 71.1689 61.5173 70.3031C61.0853 69.4156 60.0269 69.0477 59.1413 69.5022C59.1629 69.5022 59.1413 69.5022 59.1413 69.5022Z" fill="#0033AD"/>
<path d="M38.6636 51.6667C40.3052 49.1342 39.614 45.7576 37.0868 44.0909C34.5596 42.4459 31.19 43.1385 29.5268 45.671C27.8636 48.2035 28.5764 51.5801 31.1036 53.2468C31.9892 53.8312 33.026 54.1342 34.0844 54.1342C35.942 54.1558 37.6484 53.2251 38.6636 51.6667Z" fill="#0033AD"/>
<path d="M27.7555 60.0433C26.5027 59.2208 24.7963 59.5671 23.9755 60.8225C23.1547 62.0779 23.5003 63.7879 24.7531 64.6104C26.0059 65.4329 27.7123 65.0866 28.5331 63.8312C29.3755 62.5758 29.0299 60.8658 27.7555 60.0433Z" fill="#0033AD"/>
<path d="M40.478 70.4979C39.2468 70.4329 38.1884 71.3853 38.102 72.6191C38.0156 73.8529 38.9876 74.9135 40.2188 75C41.45 75.065 42.5084 74.1342 42.5948 72.9005C42.6596 71.6451 41.7092 70.5845 40.478 70.4979Z" fill="#0033AD"/>
<path d="M40.4996 56.3637C38.7284 56.2555 37.2164 57.6191 37.13 59.394C37.022 61.1689 38.3828 62.684 40.154 62.7706C41.9252 62.8572 43.4372 61.5152 43.5236 59.7403C43.6316 57.9871 42.2708 56.4503 40.4996 56.3637Z" fill="#0033AD"/>
<path d="M53.6114 59.8269C52.2722 60.5195 51.7322 62.1646 52.4234 63.5066C53.1146 64.8485 54.7562 65.3897 56.0954 64.697C57.4346 64.026 57.9746 62.381 57.305 61.039C56.6138 59.697 54.9722 59.1343 53.6114 59.8269Z" fill="#0033AD"/>
</g>
<defs>
<clipPath id="clip0">
<rect width="81" height="75" fill="white"/>
</clipPath>
</defs>
</svg>
