<svg width="42" height="42" viewBox="0 0 42 42" fill="none" xmlns="http://www.w3.org/2000/svg">
<circle cx="40.5" cy="17.5" r="1.5" fill="#1DA765"/>
<circle cx="1.5" cy="24.5" r="1.5" fill="#2DEA8F"/>
<path d="M41 21C41 32.0457 32.0457 41 21 41C16.7507 41 12.811 39.6748 9.57143 37.4152M1 21C1 13.0217 5.67158 6.13456 12.4286 2.92466C15.0264 1.69055 17.9326 1 21 1C25.4598 1 29.5786 2.45972 32.9048 4.92744" stroke="url(#paint0_linear)" stroke-width="2" stroke-linecap="round"/>
<g clip-path="url(#clip0)">
<path fill-rule="evenodd" clip-rule="evenodd" d="M13.395 12.1024L9.01897 21.2943C9.00232 21.3285 8.99704 21.3671 9.00391 21.4045C9.01078 21.4419 9.02943 21.4761 9.05715 21.5022L20.8758 32.8273C20.9094 32.8595 20.9541 32.8774 21.0006 32.8774C21.0471 32.8774 21.0918 32.8595 21.1254 32.8273L32.944 21.5029C32.9717 21.4768 32.9904 21.4426 32.9973 21.4052C33.0041 21.3678 32.9989 21.3292 32.9822 21.295L28.6062 12.1031C28.592 12.0723 28.5693 12.0461 28.5407 12.0278C28.5121 12.0095 28.4789 11.9998 28.4449 11.9999H13.5576C13.5235 11.9995 13.49 12.0089 13.4612 12.0271C13.4323 12.0453 13.4093 12.0715 13.395 12.1024Z" fill="#31C77F"/>
<path fill-rule="evenodd" clip-rule="evenodd" d="M22.5186 22.2383C22.4338 22.2447 21.9954 22.2708 21.0175 22.2708C20.2397 22.2708 19.6875 22.2475 19.4938 22.2383C16.488 22.1061 14.2445 21.5828 14.2445 20.9564C14.2445 20.3299 16.488 19.8074 19.4938 19.673V21.7172C19.6903 21.7313 20.2532 21.7646 21.0309 21.7646C21.9643 21.7646 22.4317 21.7257 22.5158 21.7179V19.6745C25.5152 19.8081 27.7538 20.3313 27.7538 20.9564C27.7538 21.5814 25.5159 22.1047 22.5158 22.2376L22.5186 22.2383ZM22.5186 19.463V17.6339H26.7045V14.8445H15.3079V17.6339H19.4931V19.4623C16.0914 19.6186 13.5332 20.2924 13.5332 21.0999C13.5332 21.9074 16.0914 22.5805 19.4931 22.7375V28.5991H22.5179V22.7354C25.9118 22.5791 28.4658 21.906 28.4658 21.0992C28.4658 20.2924 25.914 19.6193 22.5179 19.4623L22.5186 19.463Z" fill="white"/>
</g>
<defs>
<linearGradient id="paint0_linear" x1="1" y1="1" x2="48.951" y2="16.671" gradientUnits="userSpaceOnUse">
<stop stop-color="#2DEA8F"/>
<stop offset="0.485366" stop-color="#31C77F"/>
<stop offset="1" stop-color="#1DA765"/>
</linearGradient>
<clipPath id="clip0">
<rect width="24" height="20.8776" fill="white" transform="translate(9 12)"/>
</clipPath>
</defs>
</svg>
